ffmpeg started on 2026-04-07 at 22:16:10
Report written to "ffmpeg-20260407-221610.log"
Log level: 32
Command line:
/opt/homebrew/bin/ffmpeg -y -loglevel repeat+info -i file:/Users/sudiptabag/Downloads/test2//Top_Watches_of_Top_YouTubers_Best_watch_collection_India.f137.mp4 -i file:/Users/sudiptabag/Downloads/test2//Top_Watches_of_Top_YouTubers_Best_watch_collection_India.f140.m4a -c copy -map 0:v:0 -map 1:a:0 -movflags +faststart -c:v h264_videotoolbox -b:v 8M file:/Users/sudiptabag/Downloads/test2//Top_Watches_of_Top_YouTubers_Best_watch_collection_India.temp.mp4
ffmpeg version 8.1 Copyright (c) 2000-2026 the FFmpeg developers
  built with Apple clang version 21.0.0 (clang-2100.0.123.102)
  configuration: --prefix=/opt/homebrew/Cellar/ffmpeg/8.1 --enable-shared --enable-pthreads --enable-version3 --cc=clang --host-cflags= --host-ldflags= --enable-ffplay --enable-gpl --enable-libsvtav1 --enable-libopus --enable-libx264 --enable-libmp3lame --enable-libdav1d --enable-libvmaf --enable-libvpx --enable-libx265 --enable-openssl --enable-videotoolbox --enable-audiotoolbox --enable-neon
  libavutil      60. 26.100 / 60. 26.100
  libavcodec     62. 28.100 / 62. 28.100
  libavformat    62. 12.100 / 62. 12.100
  libavdevice    62.  3.100 / 62.  3.100
  libavfilter    11. 14.100 / 11. 14.100
  libswscale      9.  5.100 /  9.  5.100
  libswresample   6.  3.100 /  6.  3.100
Input #0, mov,mp4,m4a,3gp,3g2,mj2, from 'file:/Users/sudiptabag/Downloads/test2//Top_Watches_of_Top_YouTubers_Best_watch_collection_India.f137.mp4':
  Metadata:
    major_brand     : dash
    minor_version   : 0
    compatible_brands: iso6avc1mp41
    creation_time   : 2025-07-24T04:44:39.000000Z
  Duration: 00:06:38.17, start: 0.000000, bitrate: 1268 kb/s
  Stream #0:0[0x1](und): Video: h264 (High) (avc1 / 0x31637661), yuv420p(tv, bt709, progressive), 1920x1080 [SAR 1:1 DAR 16:9], 1856 kb/s, 24 fps, 24 tbr, 12288 tbn (default)
    Metadata:
      creation_time   : 2025-07-24T04:44:39.000000Z
      handler_name    : ISO Media file produced by Google Inc.
Input #1, mov,mp4,m4a,3gp,3g2,mj2, from 'file:/Users/sudiptabag/Downloads/test2//Top_Watches_of_Top_YouTubers_Best_watch_collection_India.f140.m4a':
  Metadata:
    major_brand     : dash
    minor_version   : 0
    compatible_brands: iso6mp41
    creation_time   : 2025-07-24T04:40:24.000000Z
    encoder         : Google
  Duration: 00:06:38.25, start: 0.000000, bitrate: 129 kb/s
  Stream #1:0[0x1](und): Audio: aac (LC) (mp4a / 0x6134706D), 44100 Hz, stereo, fltp, 128 kb/s (default)
    Metadata:
      creation_time   : 2025-07-24T04:40:24.000000Z
      handler_name    : ISO Media file produced by Google Inc.
[vost#0:0 @ 0xc66d18000] Multiple -codec/-c/-acodec/-vcodec/-scodec/-dcodec options specified for stream 0, only the last option '-codec:v h264_videotoolbox' will be used.
Stream mapping:
  Stream #0:0 -> #0:0 (h264 (native) -> h264 (h264_videotoolbox))
  Stream #1:0 -> #0:1 (copy)
Press [q] to stop, [?] for help
Output #0, mp4, to 'file:/Users/sudiptabag/Downloads/test2//Top_Watches_of_Top_YouTubers_Best_watch_collection_India.temp.mp4':
  Metadata:
    major_brand     : dash
    minor_version   : 0
    compatible_brands: iso6avc1mp41
    encoder         : Lavf62.12.100
  Stream #0:0(und): Video: h264 (avc1 / 0x31637661), yuv420p(tv, bt709, progressive), 1920x1080 [SAR 1:1 DAR 16:9], q=2-31, 8000 kb/s, 24 fps, 12288 tbn (default)
    Metadata:
      encoder         : Lavc62.28.100 h264_videotoolbox
      creation_time   : 2025-07-24T04:44:39.000000Z
      handler_name    : ISO Media file produced by Google Inc.
  Stream #0:1(und): Audio: aac (LC) (mp4a / 0x6134706D), 44100 Hz, stereo, fltp, 128 kb/s (default)
    Metadata:
      creation_time   : 2025-07-24T04:40:24.000000Z
      handler_name    : ISO Media file produced by Google Inc.
frame=   70 fps=0.0 q=-0.0 size=    2304KiB time=00:00:02.87 bitrate=6565.1kbits/s speed=5.69x elapsed=0:00:00.50    frame=  174 fps=172 q=-0.0 size=    4608KiB time=00:00:07.20 bitrate=5236.9kbits/s speed=7.14x elapsed=0:00:01.01    frame=  276 fps=183 q=-0.0 size=    9216KiB time=00:00:11.45 bitrate=6588.9kbits/s speed=7.58x elapsed=0:00:01.51    frame=  379 fps=188 q=-0.0 size=   12800KiB time=00:00:15.75 bitrate=6657.6kbits/s speed=7.82x elapsed=0:00:02.01    frame=  481 fps=191 q=-0.0 size=   17920KiB time=00:00:20.00 bitrate=7340.1kbits/s speed=7.95x elapsed=0:00:02.51    frame=  583 fps=193 q=-0.0 size=   22272KiB time=00:00:24.25 bitrate=7523.8kbits/s speed=8.04x elapsed=0:00:03.01    frame=  685 fps=195 q=-0.0 size=   26368KiB time=00:00:28.50 bitrate=7579.2kbits/s speed= 8.1x elapsed=0:00:03.52    frame=  788 fps=196 q=-0.0 size=   30720KiB time=00:00:32.79 bitrate=7674.5kbits/s speed=8.16x elapsed=0:00:04.02    frame=  889 fps=197 q=-0.0 size=   34048KiB time=00:00:37.00 bitrate=7538.4kbits/s speed=8.18x elapsed=0:00:04.52    frame=  991 fps=197 q=-0.0 size=   38656KiB time=00:00:41.25 bitrate=7676.9kbits/s speed=8.21x elapsed=0:00:05.02    frame= 1095 fps=198 q=-0.0 size=   43264KiB time=00:00:45.58 bitrate=7775.2kbits/s speed=8.24x elapsed=0:00:05.52    frame= 1198 fps=199 q=-0.0 size=   46848KiB time=00:00:49.87 bitrate=7694.8kbits/s speed=8.27x elapsed=0:00:06.03    frame= 1301 fps=199 q=-0.0 size=   51712KiB time=00:00:54.16 bitrate=7820.8kbits/s speed=8.29x elapsed=0:00:06.53    frame= 1405 fps=200 q=-0.0 size=   56064KiB time=00:00:58.50 bitrate=7850.9kbits/s speed=8.31x elapsed=0:00:07.04    frame= 1508 fps=200 q=-0.0 size=   59648KiB time=00:01:02.79 bitrate=7781.9kbits/s speed=8.32x elapsed=0:00:07.54    frame= 1608 fps=200 q=-0.0 size=   63744KiB time=00:01:06.95 bitrate=7798.7kbits/s speed=8.32x elapsed=0:00:08.04    frame= 1706 fps=199 q=-0.0 size=   67584KiB time=00:01:11.04 bitrate=7793.3kbits/s speed=8.31x elapsed=0:00:08.55    frame= 1804 fps=199 q=-0.0 size=   71424KiB time=00:01:15.12 bitrate=7788.4kbits/s speed= 8.3x elapsed=0:00:09.05    frame= 1907 fps=199 q=-0.0 size=   76800KiB time=00:01:19.41 bitrate=7922.1kbits/s speed=8.31x elapsed=0:00:09.55    frame= 2010 fps=200 q=-0.0 size=   79360KiB time=00:01:23.70 bitrate=7766.5kbits/s speed=8.32x elapsed=0:00:10.06    frame= 2113 fps=200 q=-0.0 size=   82432KiB time=00:01:28.00 bitrate=7673.7kbits/s speed=8.33x elapsed=0:00:10.56    frame= 2214 fps=200 q=-0.0 size=   87808KiB time=00:01:32.20 bitrate=7801.1kbits/s speed=8.33x elapsed=0:00:11.07    frame= 2312 fps=200 q=-0.0 size=   93184KiB time=00:01:36.29 bitrate=7927.6kbits/s speed=8.32x elapsed=0:00:11.57    frame= 2415 fps=200 q=-0.0 size=   95488KiB time=00:01:40.58 bitrate=7777.0kbits/s speed=8.33x elapsed=0:00:12.07    frame= 2516 fps=200 q=-0.0 size=   97536KiB time=00:01:44.79 bitrate=7624.8kbits/s speed=8.33x elapsed=0:00:12.58    frame= 2612 fps=200 q=-0.0 size=  104448KiB time=00:01:48.79 bitrate=7864.9kbits/s speed=8.31x elapsed=0:00:13.08    frame= 2713 fps=200 q=-0.0 size=  110336KiB time=00:01:53.00 bitrate=7998.9kbits/s speed=8.32x elapsed=0:00:13.58    frame= 2812 fps=200 q=-0.0 size=  114944KiB time=00:01:57.12 bitrate=8039.5kbits/s speed=8.31x elapsed=0:00:14.09    frame= 2914 fps=200 q=-0.0 size=  119808KiB time=00:02:01.37 bitrate=8086.2kbits/s speed=8.32x elapsed=0:00:14.59    frame= 3017 fps=200 q=-0.0 size=  124160KiB time=00:02:05.66 bitrate=8093.8kbits/s speed=8.32x elapsed=0:00:15.09    frame= 3120 fps=200 q=-0.0 size=  129024KiB time=00:02:09.95 bitrate=8133.1kbits/s speed=8.33x elapsed=0:00:15.59    frame= 3222 fps=200 q=-0.0 size=  133632KiB time=00:02:14.20 bitrate=8156.8kbits/s speed=8.34x elapsed=0:00:16.10    frame= 3326 fps=200 q=-0.0 size=  137984KiB time=00:02:18.54 bitrate=8159.0kbits/s speed=8.34x elapsed=0:00:16.60    frame= 3430 fps=200 q=-0.0 size=  142336KiB time=00:02:22.87 bitrate=8161.1kbits/s speed=8.35x elapsed=0:00:17.10    frame= 3529 fps=200 q=-0.0 size=  146944KiB time=00:02:27.00 bitrate=8188.9kbits/s speed=8.35x elapsed=0:00:17.61    frame= 3631 fps=200 q=-0.0 size=  148992KiB time=00:02:31.25 bitrate=8069.7kbits/s speed=8.35x elapsed=0:00:18.11    frame= 3734 fps=201 q=-0.0 size=  151296KiB time=00:02:35.54 bitrate=7968.4kbits/s speed=8.35x elapsed=0:00:18.61    frame= 3836 fps=201 q=-0.0 size=  154112KiB time=00:02:39.79 bitrate=7900.8kbits/s speed=8.36x elapsed=0:00:19.12    frame= 3938 fps=201 q=-0.0 size=  157184KiB time=00:02:44.04 bitrate=7849.5kbits/s speed=8.36x elapsed=0:00:19.62    frame= 4039 fps=201 q=-0.0 size=  163840KiB time=00:02:48.25 bitrate=7977.3kbits/s speed=8.36x elapsed=0:00:20.13    frame= 4141 fps=201 q=-0.0 size=  169472KiB time=00:02:52.50 bitrate=8048.2kbits/s speed=8.36x elapsed=0:00:20.63    frame= 4244 fps=201 q=-0.0 size=  174336KiB time=00:02:56.79 bitrate=8078.2kbits/s speed=8.36x elapsed=0:00:21.13    frame= 4346 fps=201 q=-0.0 size=  177408KiB time=00:03:01.04 bitrate=8027.6kbits/s speed=8.37x elapsed=0:00:21.64    frame= 4449 fps=201 q=-0.0 size=  180224KiB time=00:03:05.33 bitrate=7966.2kbits/s speed=8.37x elapsed=0:00:22.14    frame= 4550 fps=201 q=-0.0 size=  184064KiB time=00:03:09.54 bitrate=7955.3kbits/s speed=8.37x elapsed=0:00:22.65    frame= 4652 fps=201 q=-0.0 size=  187904KiB time=00:03:13.79 bitrate=7943.1kbits/s speed=8.37x elapsed=0:00:23.15    frame= 4752 fps=201 q=-0.0 size=  193280KiB time=00:03:17.95 bitrate=7998.4kbits/s speed=8.37x elapsed=0:00:23.66    frame= 4852 fps=201 q=-0.0 size=  197376KiB time=00:03:22.12 bitrate=7999.5kbits/s speed=8.36x elapsed=0:00:24.16    frame= 4948 fps=201 q=-0.0 size=  201216KiB time=00:03:26.12 bitrate=7996.9kbits/s speed=8.36x elapsed=0:00:24.66    frame= 5049 fps=201 q=-0.0 size=  204288KiB time=00:03:30.33 bitrate=7956.5kbits/s speed=8.36x elapsed=0:00:25.17    frame= 5152 fps=201 q=-0.0 size=  206848KiB time=00:03:34.62 bitrate=7895.2kbits/s speed=8.36x elapsed=0:00:25.67    frame= 5254 fps=201 q=-0.0 size=  212992KiB time=00:03:38.87 bitrate=7971.8kbits/s speed=8.36x elapsed=0:00:26.18    frame= 5357 fps=201 q=-0.0 size=  216576KiB time=00:03:43.16 bitrate=7950.1kbits/s speed=8.36x elapsed=0:00:26.68    frame= 5459 fps=201 q=-0.0 size=  221184KiB time=00:03:47.41 bitrate=7967.5kbits/s speed=8.37x elapsed=0:00:27.18    frame= 5561 fps=201 q=-0.0 size=  224768KiB time=00:03:51.66 bitrate=7948.1kbits/s speed=8.37x elapsed=0:00:27.68    frame= 5665 fps=201 q=-0.0 size=  226816KiB time=00:03:56.00 bitrate=7873.2kbits/s speed=8.37x elapsed=0:00:28.19    frame= 5766 fps=201 q=-0.0 size=  234496KiB time=00:04:00.20 bitrate=7997.2kbits/s speed=8.37x elapsed=0:00:28.69    frame= 5868 fps=201 q=-0.0 size=  240640KiB time=00:04:04.45 bitrate=8064.0kbits/s speed=8.37x elapsed=0:00:29.20    frame= 5972 fps=201 q=-0.0 size=  245760KiB time=00:04:08.79 bitrate=8092.2kbits/s speed=8.38x elapsed=0:00:29.70    frame= 6076 fps=201 q=-0.0 size=  250112KiB time=00:04:13.12 bitrate=8094.5kbits/s speed=8.38x elapsed=0:00:30.21    frame= 6180 fps=201 q=-0.0 size=  253440KiB time=00:04:17.45 bitrate=8064.1kbits/s speed=8.38x elapsed=0:00:30.71    frame= 6284 fps=201 q=-0.0 size=  258048KiB time=00:04:21.79 bitrate=8074.9kbits/s speed=8.38x elapsed=0:00:31.22    frame= 6389 fps=201 q=-0.0 size=  262400KiB time=00:04:26.16 bitrate=8076.1kbits/s speed=8.39x elapsed=0:00:31.72    frame= 6493 fps=201 q=-0.0 size=  266496KiB time=00:04:30.50 bitrate=8070.7kbits/s speed=8.39x elapsed=0:00:32.23    frame= 6587 fps=201 q=-0.0 size=  270848KiB time=00:04:34.41 bitrate=8085.5kbits/s speed=8.37x elapsed=0:00:32.77    frame= 6695 fps=201 q=-0.0 size=  275456KiB time=00:04:38.91 bitrate=8090.4kbits/s speed=8.38x elapsed=0:00:33.27    frame= 6798 fps=201 q=-0.0 size=  279808KiB time=00:04:43.20 bitrate=8093.6kbits/s speed=8.39x elapsed=0:00:33.77    frame= 6893 fps=201 q=-0.0 size=  283904KiB time=00:04:47.16 bitrate=8098.9kbits/s speed=8.38x elapsed=0:00:34.27    frame= 6983 fps=201 q=-0.0 size=  287744KiB time=00:04:50.91 bitrate=8102.7kbits/s speed=8.36x elapsed=0:00:34.78    frame= 7087 fps=201 q=-0.0 size=  291072KiB time=00:04:55.25 bitrate=8076.1kbits/s speed=8.37x elapsed=0:00:35.28    frame= 7190 fps=201 q=-0.0 size=  295168KiB time=00:04:59.54 bitrate=8072.4kbits/s speed=8.37x elapsed=0:00:35.78    frame= 7292 fps=201 q=-0.0 size=  300032KiB time=00:05:03.79 bitrate=8090.6kbits/s speed=8.37x elapsed=0:00:36.29    frame= 7397 fps=201 q=-0.0 size=  304128KiB time=00:05:08.16 bitrate=8084.6kbits/s speed=8.37x elapsed=0:00:36.79    frame= 7499 fps=201 q=-0.0 size=  308992KiB time=00:05:12.41 bitrate=8102.2kbits/s speed=8.38x elapsed=0:00:37.30    frame= 7602 fps=201 q=-0.0 size=  312832KiB time=00:05:16.70 bitrate=8091.7kbits/s speed=8.38x elapsed=0:00:37.80    frame= 7698 fps=201 q=-0.0 size=  316160KiB time=00:05:20.70 bitrate=8075.8kbits/s speed=8.37x elapsed=0:00:38.30    frame= 7802 fps=201 q=-0.0 size=  320768KiB time=00:05:25.04 bitrate=8084.3kbits/s speed=8.38x elapsed=0:00:38.81    frame= 7905 fps=201 q=-0.0 size=  325632KiB time=00:05:29.33 bitrate=8099.9kbits/s speed=8.38x elapsed=0:00:39.31    frame= 8008 fps=201 q=-0.0 size=  329984KiB time=00:05:33.62 bitrate=8102.6kbits/s speed=8.38x elapsed=0:00:39.81    frame= 8112 fps=201 q=-0.0 size=  335104KiB time=00:05:37.95 bitrate=8122.8kbits/s speed=8.38x elapsed=0:00:40.31    frame= 8215 fps=201 q=-0.0 size=  339200KiB time=00:05:42.25 bitrate=8119.0kbits/s speed=8.38x elapsed=0:00:40.81    frame= 8318 fps=201 q=-0.0 size=  342016KiB time=00:05:46.54 bitrate=8085.0kbits/s speed=8.39x elapsed=0:00:41.32    frame= 8422 fps=201 q=-0.0 size=  346112KiB time=00:05:50.87 bitrate=8080.8kbits/s speed=8.39x elapsed=0:00:41.82    frame= 8525 fps=201 q=-0.0 size=  350208KiB time=00:05:55.16 bitrate=8077.6kbits/s speed=8.39x elapsed=0:00:42.33    frame= 8627 fps=201 q=-0.0 size=  353792KiB time=00:05:59.41 bitrate=8063.8kbits/s speed=8.39x elapsed=0:00:42.83    frame= 8731 fps=201 q=-0.0 size=  357120KiB time=00:06:03.75 bitrate=8042.7kbits/s speed=8.39x elapsed=0:00:43.33    frame= 8834 fps=201 q=-0.0 size=  360960KiB time=00:06:08.04 bitrate=8034.4kbits/s speed=8.39x elapsed=0:00:43.84    frame= 8935 fps=201 q=-0.0 size=  364032KiB time=00:06:12.25 bitrate=8011.1kbits/s speed=8.39x elapsed=0:00:44.34    frame= 9031 fps=201 q=-0.0 size=  368640KiB time=00:06:16.25 bitrate=8026.3kbits/s speed=8.39x elapsed=0:00:44.85    frame= 9133 fps=201 q=-0.0 size=  375040KiB time=00:06:20.50 bitrate=8074.4kbits/s speed=8.39x elapsed=0:00:45.35    frame= 9236 fps=201 q=-0.0 size=  379904KiB time=00:06:24.79 bitrate=8087.9kbits/s speed=8.39x elapsed=0:00:45.86    frame= 9340 fps=201 q=-0.0 size=  384256KiB time=00:06:29.12 bitrate=8089.5kbits/s speed=8.39x elapsed=0:00:46.36    frame= 9444 fps=202 q=-0.0 size=  388608KiB time=00:06:33.45 bitrate=8091.0kbits/s speed= 8.4x elapsed=0:00:46.86    frame= 9546 fps=202 q=-0.0 size=  392960KiB time=00:06:37.70 bitrate=8094.2kbits/s speed= 8.4x elapsed=0:00:47.37    [mp4 @ 0xc67023c00] Starting second pass: moving the moov atom to the beginning of the file
[out#0/mp4 @ 0xc67050480] video:387166KiB audio:6223KiB subtitle:0KiB other streams:0KiB global headers:0KiB muxing overhead: 0.058357%
frame= 9556 fps=200 q=-0.0 Lsize=  393618KiB time=00:06:38.12 bitrate=8099.3kbits/s speed=8.35x elapsed=0:00:47.68    
